<svg width="100" height="100" viewBox="0 0 100 100" fill="none" xmlns="http://www.w3.org/2000/svg">
<path d="M47.8923 3.84615C47.8923 2.82609 47.4871 1.84781 46.7658 1.12651C46.0445 0.405218 45.0662 0 44.0462 0C43.0261 0 42.0478 0.405218 41.3265 1.12651C40.6052 1.84781 40.2 2.82609 40.2 3.84615V13.9897C40.2 15.0098 40.6052 15.9881 41.3265 16.7094C42.0478 17.4307 43.0261 17.8359 44.0462 17.8359C45.0662 17.8359 46.0445 17.4307 46.7658 16.7094C47.4871 15.9881 47.8923 15.0098 47.8923 13.9897V3.84615ZM19.1436 13.8205C18.422 13.1152 17.4522 12.7217 16.4432 12.7248C15.4342 12.728 14.4668 13.1275 13.7496 13.8373C13.0325 14.547 12.6229 15.5102 12.6093 16.5191C12.5957 17.5281 12.9791 18.5019 13.6769 19.2308L21.2154 26.8359C21.5619 27.2278 21.9847 27.5448 22.458 27.7677C22.9312 27.9906 23.445 28.1146 23.9678 28.1321C24.4906 28.1496 25.0115 28.0603 25.4986 27.8696C25.9857 27.6789 26.4288 27.3909 26.8008 27.0231C27.1728 26.6553 27.4658 26.2155 27.662 25.7306C27.8582 25.2456 27.9534 24.7258 27.9418 24.2028C27.9302 23.6798 27.8121 23.1647 27.5946 22.689C27.3771 22.2132 27.0648 21.7868 26.6769 21.4359L19.1436 13.8205ZM74.4154 19.2308C75.0917 18.4985 75.4573 17.5323 75.4352 16.5358C75.4131 15.5393 75.0049 14.5902 74.2968 13.8887C73.5886 13.1872 72.6358 12.7881 71.6391 12.7753C70.6424 12.7626 69.6797 13.1373 68.9538 13.8205L61.4154 21.4308C61.0394 21.7847 60.7385 22.2107 60.5306 22.6835C60.3228 23.1562 60.2123 23.666 60.2057 24.1823C60.1991 24.6987 60.2966 25.2111 60.4922 25.689C60.6879 26.1669 60.9779 26.6004 61.3447 26.9639C61.7116 27.3273 62.1479 27.6131 62.6276 27.8043C63.1073 27.9955 63.6206 28.0881 64.1369 28.0766C64.6532 28.0652 65.1619 27.9499 65.6326 27.7376C66.1034 27.5253 66.5266 27.2204 66.8769 26.841L74.4154 19.2308ZM48.9744 40.2359C43.718 38.1641 38.7487 43.4 40.7179 48.4923L59.0821 95.9282C61.1846 101.354 68.8308 101.359 70.9333 95.9282L77.9795 77.759L95.9692 70.6564C101.344 68.5333 101.344 60.8974 95.9692 58.7744L48.9744 40.2359ZM13.8974 40.5795H3.84615C2.82609 40.5795 1.84781 40.9847 1.12651 41.706C0.405218 42.4273 0 43.4056 0 44.4256C0 45.4457 0.405218 46.424 1.12651 47.1453C1.84781 47.8666 2.82609 48.2718 3.84615 48.2718H13.8974C14.9175 48.2718 15.8958 47.8666 16.6171 47.1453C17.3384 46.424 17.7436 45.4457 17.7436 44.4256C17.7436 43.4056 17.3384 42.4273 16.6171 41.706C15.8958 40.9847 14.9175 40.5795 13.8974 40.5795ZM26.6769 67.4205C27.3751 66.6923 27.7591 65.7189 27.7464 64.7101C27.7336 63.7014 27.325 62.738 26.6086 62.0277C25.8922 61.3174 24.9254 60.9169 23.9166 60.9127C22.9078 60.9085 21.9377 61.3008 21.2154 62.0051L13.6769 69.6154C13.3213 69.9743 13.0399 70.3998 12.8488 70.8675C12.6576 71.3352 12.5605 71.836 12.5629 72.3412C12.5653 72.8464 12.6671 73.3463 12.8627 73.8122C13.0582 74.278 13.3436 74.7008 13.7026 75.0564C14.0615 75.412 14.487 75.6934 14.9547 75.8845C15.4224 76.0757 15.9231 76.1728 16.4284 76.1705C16.9336 76.1681 17.4335 76.0662 17.8993 75.8707C18.3652 75.6751 18.788 75.3897 19.1436 75.0308L26.6769 67.4205Z" fill="white"/>
</svg>
