<svg xmlns="http://www.w3.org/2000/svg" width="32" height="30" viewBox="0 0 32 30" fill="currentColor">
  <path fill-rule="evenodd" clip-rule="evenodd" d="M12.5385 5.66667C12.5385 7.1394 11.2986 8.33333 9.76923 8.33333C8.23985 8.33333 7 7.1394 7 5.66667C7 4.19391 8.23985 3 9.76923 3C11.2986 3 12.5385 4.19391 12.5385 5.66667ZM9.76923 17.6667C11.2986 17.6667 12.5385 16.4727 12.5385 15C12.5385 13.5273 11.2986 12.3333 9.76923 12.3333C8.23985 12.3333 7 13.5273 7 15C7 16.4727 8.23985 17.6667 9.76923 17.6667ZM9.76923 27C11.2986 27 12.5385 25.8061 12.5385 24.3333C12.5385 22.8606 11.2986 21.6667 9.76923 21.6667C8.23985 21.6667 7 22.8606 7 24.3333C7 25.8061 8.23985 27 9.76923 27Z" fill="#F8F8F8"/>
  <path fill-rule="evenodd" clip-rule="evenodd" d="M24.9999 5.66667C24.9999 7.1394 23.76 8.33333 22.2307 8.33333C20.7013 8.33333 19.4614 7.1394 19.4614 5.66667C19.4614 4.19391 20.7013 3 22.2307 3C23.76 3 24.9999 4.19391 24.9999 5.66667ZM22.2307 17.6667C23.76 17.6667 24.9999 16.4727 24.9999 15C24.9999 13.5273 23.76 12.3333 22.2307 12.3333C20.7013 12.3333 19.4614 13.5273 19.4614 15C19.4614 16.4727 20.7013 17.6667 22.2307 17.6667ZM22.2307 27C23.76 27 24.9999 25.8061 24.9999 24.3333C24.9999 22.8606 23.76 21.6667 22.2307 21.6667C20.7013 21.6667 19.4614 22.8606 19.4614 24.3333C19.4614 25.8061 20.7013 27 22.2307 27Z" fill="#F8F8F8"/>
</svg>