<svg width="30" height="36" viewBox="0 0 30 36" fill="none" xmlns="http://www.w3.org/2000/svg">
<g filter="url(#filter0_dd_832_243)">
<path fill-rule="evenodd" clip-rule="evenodd" d="M11.2234 3.80675C11.2234 5.62564 9.81207 7.1002 8.07118 7.1002C6.33028 7.1002 4.91895 5.62564 4.91895 3.80675C4.91895 1.98783 6.33028 0.513306 8.07118 0.513306C9.81207 0.513306 11.2234 1.98783 11.2234 3.80675ZM8.07118 18.6273C9.81207 18.6273 11.2234 17.1527 11.2234 15.3338C11.2234 13.5149 9.81207 12.0404 8.07118 12.0404C6.33028 12.0404 4.91895 13.5149 4.91895 15.3338C4.91895 17.1527 6.33028 18.6273 8.07118 18.6273ZM8.07118 30.1543C9.81207 30.1543 11.2234 28.6798 11.2234 26.8609C11.2234 25.042 9.81207 23.5674 8.07118 23.5674C6.33028 23.5674 4.91895 25.042 4.91895 26.8609C4.91895 28.6798 6.33028 30.1543 8.07118 30.1543Z" fill="#A8A8A8"/>
<path fill-rule="evenodd" clip-rule="evenodd" d="M25.408 3.80675C25.408 5.62564 23.9966 7.1002 22.2557 7.1002C20.5148 7.1002 19.1035 5.62564 19.1035 3.80675C19.1035 1.98783 20.5148 0.513306 22.2557 0.513306C23.9966 0.513306 25.408 1.98783 25.408 3.80675ZM22.2557 18.6273C23.9966 18.6273 25.408 17.1527 25.408 15.3338C25.408 13.5149 23.9966 12.0404 22.2557 12.0404C20.5148 12.0404 19.1035 13.5149 19.1035 15.3338C19.1035 17.1527 20.5148 18.6273 22.2557 18.6273ZM22.2557 30.1543C23.9966 30.1543 25.408 28.6798 25.408 26.8609C25.408 25.042 23.9966 23.5674 22.2557 23.5674C20.5148 23.5674 19.1035 25.042 19.1035 26.8609C19.1035 28.6798 20.5148 30.1543 22.2557 30.1543Z" fill="#A8A8A8"/>
</g>
<defs>
<filter id="filter0_dd_832_243" x="0.918945" y="0.513306" width="28.4893" height="37.641" filterUnits="userSpaceOnUse" color-interpolation-filters="sRGB">
<feFlood flood-opacity="0" result="BackgroundImageFix"/>
<feColorMatrix in="SourceAlpha" type="matrix" values="0 0 0 0 0 0 0 0 0 0 0 0 0 0 0 0 0 0 127 0" result="hardAlpha"/>
<feOffset dy="4"/>
<feGaussianBlur stdDeviation="2"/>
<feComposite in2="hardAlpha" operator="out"/>
<feColorMatrix type="matrix" values="0 0 0 0 0 0 0 0 0 0 0 0 0 0 0 0 0 0 0.25 0"/>
<feBlend mode="normal" in2="BackgroundImageFix" result="effect1_dropShadow_832_243"/>
<feColorMatrix in="SourceAlpha" type="matrix" values="0 0 0 0 0 0 0 0 0 0 0 0 0 0 0 0 0 0 127 0" result="hardAlpha"/>
<feOffset dy="4"/>
<feGaussianBlur stdDeviation="2"/>
<feComposite in2="hardAlpha" operator="out"/>
<feColorMatrix type="matrix" values="0 0 0 0 0 0 0 0 0 0 0 0 0 0 0 0 0 0 0.25 0"/>
<feBlend mode="normal" in2="effect1_dropShadow_832_243" result="effect2_dropShadow_832_243"/>
<feBlend mode="normal" in="SourceGraphic" in2="effect2_dropShadow_832_243" result="shape"/>
</filter>
</defs>
</svg>
