<svg width="24" height="28" viewBox="0 0 24 28" fill="none" xmlns="http://www.w3.org/2000/svg">
<path fill-rule="evenodd" clip-rule="evenodd" d="M11.741 27.0725L11.7272 27.075L11.6385 27.1187L11.6135 27.1237L11.596 27.1187L11.5072 27.075C11.4939 27.0708 11.4839 27.0729 11.4772 27.0812L11.4722 27.0937L11.451 27.6287L11.4572 27.6537L11.4697 27.67L11.5997 27.7625L11.6185 27.7675L11.6335 27.7625L11.7635 27.67L11.7785 27.65L11.7835 27.6287L11.7622 27.095C11.7589 27.0816 11.7518 27.0742 11.741 27.0725ZM12.0722 26.9312L12.056 26.9337L11.8247 27.05L11.8122 27.0625L11.8085 27.0762L11.831 27.6137L11.8372 27.6287L11.8472 27.6375L12.0985 27.7537C12.1143 27.7579 12.1264 27.7546 12.1347 27.7437L12.1397 27.7262L12.0972 26.9587C12.0931 26.9437 12.0847 26.9346 12.0722 26.9312ZM11.1785 26.9337C11.173 26.9304 11.1664 26.9293 11.1601 26.9307C11.1538 26.9321 11.1483 26.9359 11.1447 26.9412L11.1372 26.9587L11.0947 27.7262C11.0956 27.7412 11.1026 27.7512 11.116 27.7562L11.1347 27.7537L11.386 27.6375L11.3985 27.6275L11.4035 27.6137L11.4247 27.0762L11.421 27.0612L11.4085 27.0487L11.1785 26.9337Z" fill="#4C4C4C"/>
<path fill-rule="evenodd" clip-rule="evenodd" d="M21.1637 1.95C20.4604 1.24698 19.5068 0.852051 18.5124 0.852051C17.518 0.852051 16.5644 1.24698 15.8612 1.95L14.9774 2.835L21.1649 9.0225L22.0474 8.13875C22.3957 7.79052 22.672 7.3771 22.8605 6.92208C23.049 6.46707 23.146 5.97939 23.146 5.48688C23.146 4.99436 23.049 4.50668 22.8605 4.05167C22.672 3.59665 22.3957 3.18323 22.0474 2.835L21.1637 1.95ZM19.3962 10.79L13.2087 4.6025L1.84616 15.9663C1.59751 16.2149 1.42382 16.5285 1.34491 16.8713L0.05866 22.44C0.0107338 22.6467 0.0162311 22.8623 0.0746341 23.0663C0.133037 23.2703 0.242423 23.4561 0.392484 23.6062C0.542545 23.7562 0.728341 23.8656 0.932365 23.924C1.13639 23.9824 1.35192 23.9879 1.55866 23.94L7.12866 22.655C7.47092 22.5759 7.78406 22.4022 8.03241 22.1537L19.3962 10.79Z" fill="#4C4C4C"/>
</svg>