<svg xmlns="http://www.w3.org/2000/svg" width="40" height="40" viewBox="0 0 40 40" fill="currentColor">
<path d="M13.5897 30.7022L26.698 29.2522C28.955 29.0025 29.9535 27.7556 29.7075 25.5314L28.249 12.3469C28.0029 10.1227 26.756 9.12421 24.499 9.37388L11.3908 10.8239C9.14484 11.0724 8.12302 12.3111 8.37024 14.5459L9.82878 27.7309C10.076 29.9657 11.3438 30.9507 13.5897 30.7022ZM13.4297 28.9609C12.3503 29.0803 11.6821 28.5751 11.5579 27.4519L10.1186 14.4411C9.99436 13.318 10.536 12.6789 11.6154 12.5595L24.6592 11.1165C25.728 10.9983 26.3962 11.5036 26.5204 12.6267L27.9596 25.6366C28.0839 26.7598 27.5423 27.3988 26.4734 27.5171L13.4297 28.9609ZM18.2903 25.5707C18.6466 25.5313 18.9189 25.3263 19.1074 24.9557L23.5141 15.9755C23.6204 15.7558 23.7229 15.4931 23.6966 15.2558C23.6417 14.7592 23.1753 14.4937 22.7216 14.5439C22.4299 14.5761 22.1791 14.7788 22.0209 15.1241L18.0149 23.4691L15.1391 20.4978C14.8672 20.2108 14.5946 20.1206 14.3035 20.1528C13.828 20.2054 13.492 20.625 13.5458 21.111C13.5721 21.3487 13.6951 21.5753 13.88 21.7628L17.3062 25.1652C17.6356 25.4785 17.9337 25.6102 18.2903 25.5707Z" fill="#4D4D4D"/>
<path d="M21.6744 29.1106L27.9959 30.9871C29.0843 31.3102 29.7865 30.9295 30.1049 29.8568L31.9922 23.4986C32.3106 22.426 31.9299 21.7238 30.8415 21.4007L24.52 19.5243C23.4369 19.2028 22.7256 19.5752 22.4057 20.6529L20.5182 27.0114C20.1983 28.0891 20.5913 28.7891 21.6744 29.1106ZM21.9387 28.2772C21.4181 28.1227 21.2083 27.7602 21.3691 27.2185L23.2316 20.944C23.3924 20.4024 23.766 20.213 24.2866 20.3676L30.577 22.2348C31.0924 22.3878 31.3022 22.7503 31.1414 23.292L29.2791 29.566C29.1183 30.1077 28.7447 30.297 28.2292 30.144L21.9387 28.2772ZM24.8364 27.6586C25.0082 27.7096 25.1735 27.668 25.3323 27.5339L29.1061 24.2514C29.1977 24.1708 29.2959 24.0696 29.3299 23.9552C29.401 23.7157 29.2377 23.5029 29.0188 23.4379C28.8782 23.3962 28.7233 23.4408 28.5834 23.5692L25.1175 26.6368L24.3692 24.7094C24.2996 24.5244 24.1915 24.4299 24.0511 24.3882C23.8218 24.3202 23.5856 24.4483 23.516 24.6827C23.482 24.7973 23.4947 24.9256 23.5435 25.0479L24.4617 27.2807C24.5527 27.4891 24.6645 27.6076 24.8364 27.6586Z" fill="#F8F8F8"/>
</svg>